<svg width="38" height="38" viewBox="0 0 38 38" fill="none" xmlns="http://www.w3.org/2000/svg">
<rect width="38" height="38" fill="#080715"/>
<g clip-path="url(#clip0_9_20)">
<path d="M25.375 7H12.625C9.5184 7 7 9.5184 7 12.625V25.375C7 28.4816 9.5184 31 12.625 31H25.375C28.4816 31 31 28.4816 31 25.375V12.625C31 9.5184 28.4816 7 25.375 7Z" fill="#0277BD"/>
<path d="M12.0393 16.6235L12.3077 19.6181H19.009V16.6235H12.0393ZM19.0089 10.5625H11.5L11.7722 13.5571H19.0089V10.5625ZM19.0089 27.5163V24.4008L18.9958 24.4042L15.6607 23.5037L15.4475 21.1154H12.4414L12.861 25.8173L18.9951 27.5202L19.0089 27.5163Z" fill="#EBEBEB"/>
<path d="M22.686 19.6181L22.3384 23.5018L18.9985 24.4033V27.5187L25.1376 25.8173L25.1826 25.3113L25.8863 17.4277L25.9593 16.6235L26.4999 10.5625H18.9985V13.5571H23.2181L22.9457 16.6235H18.9985V19.6181H22.686Z" fill="white"/>
</g>
<defs>
<clipPath id="clip0_9_20">
<rect width="24" height="24" fill="white" transform="translate(7 7)"/>
</clipPath>
</defs>
</svg>
