<svg width="38" height="38" viewBox="0 0 38 38" fill="none" xmlns="http://www.w3.org/2000/svg">
<rect width="38" height="38" fill="#080715"/>
<g clip-path="url(#clip0_9_20)">
<path d="M25.375 7H12.625C9.5184 7 7 9.5184 7 12.625V25.375C7 28.4816 9.5184 31 12.625 31H25.375C28.4816 31 31 28.4816 31 25.375V12.625C31 9.5184 28.4816 7 25.375 7Z" fill="#330000"/>
<path d="M18.6002 21.2812H14.8802L14.1201 23.6312C14.1002 23.7212 14.0202 23.7812 13.9302 23.7712H12.0501C11.9402 23.7712 11.9102 23.7112 11.9402 23.5912L15.1602 14.3212C15.1902 14.2212 15.2202 14.1112 15.2601 13.9912C15.3002 13.7812 15.3201 13.5612 15.3201 13.3412C15.3102 13.2912 15.3501 13.2412 15.4002 13.2312H17.9901C18.0702 13.2312 18.1101 13.2612 18.1202 13.3112L21.7701 23.6112C21.8001 23.7212 21.7701 23.7712 21.6702 23.7712H19.5801C19.5102 23.7812 19.4402 23.7312 19.4202 23.6612L18.6002 21.2812ZM15.4602 19.2512H18.0002C17.9402 19.0412 17.8602 18.7912 17.7702 18.5312C17.6802 18.2612 17.5902 17.9712 17.5002 17.6712C17.4002 17.3612 17.3102 17.0612 17.2101 16.7512C17.1102 16.4412 17.0202 16.1512 16.9401 15.8612C16.8602 15.5813 16.7901 15.3212 16.7202 15.0812H16.7001C16.6101 15.5112 16.5002 15.9413 16.3602 16.3712C16.2102 16.8512 16.0602 17.3512 15.9002 17.8512C15.771 18.3232 15.6243 18.7902 15.4602 19.2512ZM24.0002 14.9812C23.6702 14.9912 23.3502 14.8612 23.1102 14.6312C22.8802 14.3812 22.7602 14.0512 22.7702 13.7112C22.7602 13.3712 22.8902 13.0512 23.1302 12.8212C23.3702 12.5911 23.6902 12.4712 24.0202 12.4712C24.4102 12.4712 24.7102 12.5912 24.9302 12.8212C25.1518 13.0636 25.2702 13.3829 25.2602 13.7112C25.2702 14.0512 25.1502 14.3812 24.9102 14.6312C24.6802 14.8712 24.3402 15.0012 24.0002 14.9812ZM22.8802 23.6612V15.9612C22.8802 15.8612 22.9202 15.8212 23.0102 15.8212H24.9902C25.0802 15.8212 25.1202 15.8712 25.1202 15.9612V23.6612C25.1202 23.7712 25.0802 23.8212 24.9902 23.8212H23.0302C22.9302 23.8212 22.8802 23.7612 22.8802 23.6612Z" fill="#FF9A00"/>
</g>
<defs>
<clipPath id="clip0_9_20">
<rect width="24" height="24" fill="white" transform="translate(7 7)"/>
</clipPath>
</defs>
</svg>
