<svg width="38" height="38" viewBox="0 0 38 38" fill="none" xmlns="http://www.w3.org/2000/svg">
<rect width="38" height="38" fill="#080715"/>
<g clip-path="url(#clip0_9_20)">
<path d="M9.84684 19.5128V16.8925H10.4177V19.713C10.4443 19.9403 10.4247 20.1706 10.3603 20.3902C10.2959 20.6098 10.1879 20.8141 10.0428 20.9911C9.77317 21.2239 9.42752 21.3497 9.07132 21.3448L9.01172 20.9188C9.24143 20.919 9.46306 20.834 9.63372 20.6802C9.78708 20.5012 9.84676 20.2584 9.84676 19.5128M14.1044 19.1768C14.1044 19.4963 14.1044 19.7817 14.13 20.0288H13.6229L13.5888 19.5219C13.4828 19.7013 13.3311 19.8494 13.1493 19.9511C12.9675 20.0529 12.7619 20.1047 12.5536 20.1012C12.0593 20.1012 11.4714 19.8328 11.4714 18.738V16.9188H12.0423V18.6229C12.0423 19.2151 12.2255 19.6113 12.741 19.6113C12.8471 19.6125 12.9523 19.5924 13.0505 19.5523C13.1487 19.5123 13.2379 19.453 13.3129 19.378C13.3879 19.303 13.4471 19.2138 13.4872 19.1156C13.5273 19.0174 13.5473 18.9122 13.5462 18.8061V16.8974H14.1171V19.1597L14.1044 19.1768ZM15.1865 17.9324C15.1865 17.5361 15.1865 17.2124 15.1609 16.9184H15.6721L15.6977 17.4509C15.8117 17.2586 15.9757 17.1007 16.1722 16.9942C16.3688 16.8876 16.5906 16.8364 16.814 16.846C17.5724 16.846 18.1432 17.4808 18.1432 18.4265C18.1432 19.5428 17.4573 20.0967 16.716 20.0967C16.5263 20.1051 16.3376 20.0644 16.1681 19.9786C15.9987 19.8928 15.8543 19.7647 15.7488 19.6067V21.3108H15.1864L15.1865 17.9324ZM15.7488 18.7632C15.7504 18.8404 15.7589 18.9174 15.7744 18.9932C15.8227 19.1823 15.9327 19.35 16.087 19.4696C16.2414 19.5892 16.4312 19.654 16.6264 19.6536C17.2272 19.6536 17.5808 19.1636 17.5808 18.4521C17.5808 17.8301 17.2484 17.2976 16.6477 17.2976C16.41 17.3171 16.1875 17.4226 16.0221 17.5943C15.8566 17.7661 15.7594 17.9923 15.7488 18.2306L15.7488 18.7632ZM19.1604 16.9156L19.8463 18.7518C19.9196 18.9613 19.9864 19.173 20.0465 19.3866C20.1061 19.1991 20.17 18.9605 20.2468 18.739L20.8688 16.9156H21.4695L20.6174 19.1309C20.1913 20.196 19.9315 20.7456 19.5395 21.078C19.342 21.2583 19.1013 21.3845 18.8408 21.4444L18.7002 20.9672C18.8824 20.9073 19.0515 20.8134 19.1986 20.6903C19.4065 20.5209 19.5715 20.3049 19.6801 20.0597C19.7033 20.0173 19.7192 19.9712 19.7269 19.9234C19.7221 19.872 19.7092 19.8217 19.6886 19.7743L18.5298 16.9071H19.1518L19.1604 16.9156ZM22.9851 16.0217V16.9164H23.8031V17.3424H22.9851V19.0211C22.9851 19.4045 23.0958 19.626 23.4111 19.626C23.5231 19.6279 23.6348 19.615 23.7434 19.5876L23.769 20.0137C23.6061 20.0701 23.4342 20.0961 23.262 20.0904C23.1479 20.0976 23.0336 20.08 22.9269 20.0388C22.8203 19.9976 22.7238 19.9338 22.6442 19.8518C22.4707 19.6197 22.3915 19.3305 22.4226 19.0424V17.3382H21.937V16.912H22.4312V16.1536L22.9851 16.0217ZM24.8547 18.5719C24.8431 18.7164 24.8631 18.8616 24.9132 18.9977C24.9633 19.1337 25.0423 19.2572 25.1448 19.3597C25.2473 19.4622 25.3708 19.5412 25.5068 19.5913C25.6428 19.6413 25.7881 19.6613 25.9326 19.6497C26.2248 19.6562 26.5152 19.6011 26.7847 19.4878L26.8827 19.9139C26.552 20.0501 26.1964 20.1154 25.8388 20.1056C25.6304 20.1198 25.4214 20.0889 25.226 20.0148C25.0307 19.9407 24.8537 19.8252 24.7072 19.6762C24.5607 19.5273 24.4482 19.3484 24.3773 19.1519C24.3064 18.9554 24.2789 18.7459 24.2966 18.5377C24.2966 17.6004 24.8547 16.8592 25.7664 16.8592C26.7889 16.8592 27.0446 17.7538 27.0446 18.3248C27.05 18.4128 27.05 18.5009 27.0446 18.5889H24.842L24.8547 18.5719ZM26.5248 18.1458C26.5413 18.0319 26.5331 17.9158 26.5009 17.8053C26.4687 17.6948 26.4132 17.5925 26.3381 17.5053C26.263 17.4181 26.17 17.348 26.0656 17.2997C25.9611 17.2515 25.8474 17.2262 25.7324 17.2256C25.4983 17.2425 25.279 17.3463 25.1174 17.5165C24.9559 17.6867 24.8637 17.9112 24.859 18.1458H26.5248ZM27.9108 17.8843C27.9108 17.5179 27.9108 17.2027 27.8852 16.9129H28.3964V17.5222H28.422C28.4757 17.3342 28.5866 17.1675 28.7393 17.0454C28.892 16.9232 29.0789 16.8516 29.2741 16.8405C29.3279 16.8335 29.3823 16.8335 29.436 16.8405V17.3731C29.3709 17.3656 29.3052 17.3656 29.24 17.3731C29.0466 17.3806 28.8626 17.4582 28.7223 17.5915C28.5819 17.7248 28.4949 17.9046 28.4774 18.0973C28.4616 18.1845 28.453 18.2729 28.4518 18.3615V20.0188H27.8895V17.8886L27.9108 17.8843Z" fill="#4E4E4E"/>
<path d="M27.6607 8.35696C27.6782 8.64317 27.6101 8.9281 27.4651 9.17546C27.3201 9.42283 27.1047 9.62142 26.8464 9.74596C26.5881 9.8705 26.2986 9.91533 26.0148 9.87476C25.7309 9.83418 25.4656 9.71003 25.2525 9.51812C25.0395 9.32621 24.8884 9.07523 24.8185 8.79714C24.7486 8.51905 24.763 8.22645 24.86 7.95661C24.957 7.68677 25.1321 7.4519 25.363 7.28193C25.5939 7.11195 25.8702 7.01456 26.1567 7.00216C26.3445 6.99181 26.5326 7.0187 26.71 7.08127C26.8874 7.14385 27.0507 7.24088 27.1904 7.36679C27.3302 7.4927 27.4437 7.645 27.5244 7.81493C27.6051 7.98486 27.6514 8.16907 27.6607 8.35696Z" fill="#767677"/>
<path d="M19.2364 25.0434C15.402 25.0434 12.032 23.6673 10.2896 21.6351C10.9657 23.4633 12.1856 25.0405 13.7852 26.1544C15.3848 27.2683 17.2872 27.8654 19.2364 27.8654C21.1856 27.8654 23.0881 27.2683 24.6877 26.1544C26.2872 25.0405 27.5072 23.4633 28.1833 21.6351C26.4451 23.6673 23.0879 25.0434 19.2364 25.0434ZM19.2364 11.8284C23.0708 11.8284 26.4408 13.2046 28.1833 15.2367C27.5072 13.4085 26.2872 11.8313 24.6877 10.7174C23.0881 9.60352 21.1857 9.00636 19.2364 9.00635C17.2872 9.00636 15.3848 9.60352 13.7852 10.7174C12.1856 11.8313 10.9657 13.4085 10.2896 15.2367C12.032 13.2003 15.3851 11.8284 19.2364 11.8284Z" fill="#F37726"/>
<path d="M13.9576 28.998C13.9801 29.3585 13.8948 29.7176 13.7125 30.0294C13.5302 30.3412 13.2592 30.5917 12.934 30.749C12.6088 30.9063 12.2442 30.9632 11.8865 30.9124C11.5289 30.8617 11.1945 30.7057 10.9258 30.4642C10.6572 30.2228 10.4665 29.9068 10.3781 29.5566C10.2897 29.2063 10.3075 28.8377 10.4294 28.4977C10.5512 28.1576 10.7715 27.8616 11.0622 27.6472C11.3529 27.4328 11.7008 27.3098 12.0617 27.2938C12.2981 27.2812 12.5347 27.3152 12.7579 27.394C12.9811 27.4728 13.1867 27.5949 13.3627 27.7531C13.5388 27.9114 13.682 28.1028 13.784 28.3164C13.8861 28.53 13.9451 28.7616 13.9576 28.998Z" fill="#9E9E9E"/>
<path d="M10.7252 11.3652C10.5185 11.3709 10.3148 11.3154 10.1396 11.2057C9.96444 11.0959 9.82563 10.9368 9.74064 10.7484C9.65565 10.56 9.62827 10.3506 9.66196 10.1466C9.69565 9.94269 9.78889 9.75325 9.92996 9.60215C10.071 9.45105 10.2536 9.34504 10.4548 9.29745C10.656 9.24985 10.8667 9.2628 11.0605 9.33467C11.2543 9.40654 11.4226 9.53412 11.5441 9.70135C11.6656 9.86859 11.7349 10.068 11.7434 10.2746C11.7515 10.5538 11.6491 10.825 11.4584 11.0292C11.2678 11.2334 11.0043 11.3541 10.7252 11.3652Z" fill="#616262"/>
</g>
<defs>
<clipPath id="clip0_9_20">
<rect width="20.48" height="24" fill="white" transform="translate(9 7)"/>
</clipPath>
</defs>
</svg>
