<svg width="38" height="38" viewBox="0 0 38 38" fill="none" xmlns="http://www.w3.org/2000/svg">
<rect width="38" height="38" fill="#080715"/>
<g clip-path="url(#clip0_9_20)">
<path d="M18.9954 30.4544C15.936 30.4544 13.0595 29.2628 10.896 27.0995C8.73239 24.9361 7.54102 22.0597 7.54102 19C7.54102 15.9404 8.73258 13.064 10.896 10.9006C13.0593 8.73722 15.9358 7.54565 18.9954 7.54565C22.055 7.54565 24.9315 8.73722 27.095 10.9006C29.2586 13.064 30.4498 15.9404 30.4498 19C30.4498 22.0597 29.2582 24.9361 27.0948 27.0997C24.9315 29.2632 22.055 30.4544 18.9954 30.4544Z" fill="white"/>
<path opacity="0.9" d="M18.9949 18.9595H30.4493M18.9949 18.9595L27.0943 10.8603M18.9949 18.9595V7.50513M18.9949 18.9595L10.8957 10.8603M18.9949 18.9595H7.54053M18.9949 18.9595L10.8957 27.0589M18.9949 18.9595V30.4139M18.9949 18.9595L27.0943 27.0589" stroke="#858585" stroke-width="0.1605" stroke-miterlimit="7.976" stroke-linecap="round" stroke-linejoin="round"/>
<path opacity="0.9" d="M20.2682 18.9595L20.2303 18.6514L20.1191 18.3621L19.9412 18.108L19.7068 17.9046L19.4304 17.7638L19.1286 17.6938L18.8184 17.6995L18.5186 17.7799L18.2473 17.9301L18.0206 18.1416L17.8519 18.4018L17.7508 18.6953L17.7236 19.0045L17.7722 19.3108L17.8933 19.5964L18.0797 19.8441L18.3208 20.0393L18.6021 20.1702L18.9064 20.2294L19.2163 20.2133L19.5129 20.1225L19.7788 19.9628L19.9982 19.7434L20.1578 19.4777L20.2485 19.1811L20.2682 18.9595Z" stroke="#818181" stroke-width="0.1605" stroke-miterlimit="199.409" stroke-linecap="square" stroke-linejoin="round"/>
<path opacity="0.9" d="M22.8135 18.9596L22.7763 18.4284L22.6657 17.9073L22.4833 17.4069L22.2333 16.9364L21.9202 16.5054L21.5503 16.1221L21.1306 15.794L20.6692 15.5277L20.1755 15.3282L19.6584 15.1992L19.1287 15.1436L18.5962 15.1621L18.0718 15.2547L17.5651 15.4192L17.0863 15.6528L16.6445 15.9506L16.2487 16.307L15.9063 16.7152L15.624 17.1667L15.4074 17.6534L15.2608 18.1653L15.1865 18.6929V19.2258L15.2608 19.7534L15.4074 20.2653L15.624 20.7521L15.9063 21.2036L16.2487 21.6117L16.6445 21.9684L17.0863 22.2661L17.5651 22.4996L18.0718 22.664L18.5964 22.7566L19.1289 22.7754L19.6584 22.7195L20.1755 22.5907L20.6692 22.391L21.1306 22.1247L21.5503 21.7966L21.9202 21.4134L22.2333 20.9823L22.4833 20.5117L22.6655 20.0114L22.7763 19.4904L22.8135 18.9596Z" stroke="#818181" stroke-width="0.1605" stroke-miterlimit="199.409" stroke-linecap="square" stroke-linejoin="round"/>
<path opacity="0.9" d="M25.3589 18.9596L25.3242 18.2944L25.2201 17.6364L25.0476 16.9933L24.8091 16.3714L24.5067 15.7777L24.1439 15.2194L23.7246 14.7015L23.2536 14.2307L22.7359 13.8114L22.1774 13.4486L21.5839 13.1462L20.962 12.9075L20.3189 12.7352L19.6608 12.6311L18.9955 12.5964L18.3303 12.6311L17.6725 12.7352L17.0294 12.9077L16.4073 13.1462L15.8138 13.4486L15.2553 13.8114L14.7376 14.2307L14.2666 14.7015L13.8473 15.2194L13.4845 15.7777L13.1821 16.3714L12.9434 16.9933L12.7711 17.6364L12.667 18.2944L12.6323 18.9596L12.667 19.6249L12.7711 20.2828L12.9436 20.9259L13.1821 21.5479L13.4845 22.1415L13.8473 22.6999L14.2666 23.2177L14.7376 23.6886L15.2553 24.1078L15.8138 24.4706L16.4073 24.7732L17.0292 25.0117L17.6723 25.1842L18.3304 25.2883L18.9955 25.323L19.6609 25.2883L20.3187 25.1841L20.9618 25.0117L21.5839 24.7732L22.1774 24.4706L22.7359 24.1078L23.2536 23.6886L23.7246 23.2177L24.1439 22.6999L24.5067 22.1415L24.8091 21.5479L25.0476 20.9259L25.2201 20.2828L25.3242 19.6249L25.3589 18.9596Z" stroke="#818181" stroke-width="0.1605" stroke-miterlimit="199.409" stroke-linecap="square" stroke-linejoin="round"/>
<path opacity="0.9" d="M27.9041 18.9596L27.8554 18.0285L27.7091 17.1076L27.468 16.2069L27.1339 15.3365L26.7107 14.5055L26.2027 13.7235L25.6159 12.9986L24.9566 12.3391L24.2317 11.7523L23.4497 11.2443L22.6187 10.8213L21.7483 10.4874L20.8475 10.2461L19.9265 10.1L18.9954 10.0513L18.0643 10.1L17.1437 10.2461L16.2427 10.4874L15.3724 10.8213L14.5414 11.2445L13.7595 11.7526L13.0344 12.3395L12.375 12.9988L11.7881 13.7236L11.2804 14.5055L10.8572 15.3367L10.523 16.2071L10.2817 17.1078L10.1359 18.0286L10.0869 18.9598L10.1357 19.8909L10.2817 20.8117L10.523 21.7126L10.8572 22.583L11.2804 23.4138L11.7883 24.1959L12.3752 24.9208L13.0344 25.5802L13.7593 26.1671L14.5414 26.675L15.3724 27.0982L16.2427 27.4321L17.1435 27.6736L18.0643 27.8195L18.9954 27.8683L19.9265 27.8195L20.8475 27.6736L21.7483 27.4321L22.6187 27.0982L23.4497 26.675L24.2315 26.1669L24.9566 25.5802L25.6159 24.9208L26.2027 24.1959L26.7109 23.414L27.1339 22.583L27.468 21.7126L27.7093 20.8117L27.8552 19.8911L27.9041 18.9596Z" stroke="#818181" stroke-width="0.1605" stroke-miterlimit="199.409" stroke-linecap="square" stroke-linejoin="round"/>
<path d="M19 30.625C15.895 30.625 12.9756 29.4158 10.78 27.2202C8.58437 25.0246 7.375 22.1052 7.375 19C7.375 15.8948 8.58419 12.9756 10.7798 10.7798C12.9754 8.584 15.8948 7.375 19 7.375C22.1052 7.375 25.0246 8.58419 27.2202 10.7798C29.4158 12.9754 30.625 15.8948 30.625 19C30.625 22.1052 29.4158 25.0246 27.2202 27.2202C25.0246 29.4158 22.1052 30.625 19 30.625ZM19 7.71625C15.9861 7.71625 13.1524 8.89 11.0213 11.0211C8.89 13.1524 7.71625 15.9859 7.71625 19C7.71625 22.0141 8.89 24.8478 11.0211 26.9789C13.1522 29.11 15.9859 30.2838 19 30.2838C22.0141 30.2838 24.8478 29.11 26.9789 26.9789C29.11 24.8478 30.2838 22.0141 30.2838 19C30.2838 15.9859 29.11 13.1524 26.9789 11.0211C24.8476 8.89 22.0141 7.71625 19 7.71625Z" fill="#11557C"/>
<path opacity="0.6" d="M18.9951 18.9596L19.0193 18.9517L19.0435 18.9439L19.0677 18.936L19.0919 18.9281L19.1161 18.9202L19.1402 18.9124L19.1644 18.9045L19.1886 18.8966L19.2128 18.8887L19.237 18.8809L19.2612 18.873L19.2854 18.8651L19.3096 18.8572L19.3337 18.8494L19.3579 18.8415L19.3821 18.8336L19.4063 18.8257L19.4305 18.8179L19.4547 18.81L19.4789 18.8021L19.5031 18.7942L19.5272 18.7864L19.5514 18.7785L19.5756 18.7706L19.5998 18.7627L19.624 18.7549L19.6482 18.747L19.6724 18.7391L19.6966 18.7312L19.7207 18.7234L19.7449 18.7155L19.7691 18.7076L19.7933 18.6997L19.8175 18.6919L19.8417 18.684L19.8659 18.6761L19.8901 18.6682L19.9142 18.6604L19.9384 18.6525L19.9626 18.6446L19.9868 18.6367L20.011 18.6289L20.0352 18.621L20.0594 18.6131L20.0836 18.6052L20.1077 18.5974L20.1319 18.5895L20.1561 18.5816L20.1803 18.5737L20.2045 18.5659L20.2287 18.558L20.2529 18.5501L20.2771 18.5422L20.3012 18.5344L20.3254 18.5265L20.3496 18.5186L20.3738 18.5107L20.398 18.5029L20.4222 18.495L20.4464 18.4871L20.4706 18.4792L20.4947 18.4714L20.5189 18.4635L20.5431 18.4556L20.5673 18.4477L20.5915 18.4399L20.6157 18.432L20.6399 18.4241L20.6641 18.4162L20.6882 18.4084L20.7124 18.4005L20.7366 18.3926L20.7608 18.3847L20.785 18.3769L20.8092 18.369L20.8334 18.3611L20.8576 18.3532L20.8817 18.3454L20.9059 18.3375L20.9301 18.3296L20.9543 18.3217L20.9785 18.3139L21.0027 18.306L21.0269 18.2981L21.0511 18.2902L21.0752 18.2824L21.0994 18.2745L21.1236 18.2666L21.1478 18.2587L21.172 18.2509L21.1962 18.243L21.2204 18.2351L21.2446 18.2272L21.2687 18.2194L21.2929 18.2115L21.3171 18.2036L21.3413 18.1957L21.3655 18.1879L21.3897 18.18L21.4139 18.1721L21.4186 18.1807L21.421 18.1884L21.4234 18.1961L21.4259 18.2038L21.4283 18.2115L21.4307 18.2192L21.433 18.2269L21.4352 18.2346L21.4373 18.2419L21.4396 18.2496L21.4418 18.2572L21.4441 18.2649L21.4463 18.2726L21.4484 18.2803L21.4504 18.288L21.4525 18.2957L21.4546 18.3034L21.4566 18.3111L21.4587 18.3187L21.4607 18.3264L21.4628 18.3341L21.4647 18.3418L21.4666 18.3495L21.4684 18.3572L21.4703 18.3649L21.4722 18.3726L21.4741 18.3804L21.4759 18.3883L21.4776 18.3962L21.4793 18.4041L21.481 18.4119L21.4827 18.4198L21.4844 18.4277L21.4861 18.4356L21.4877 18.4434L21.4894 18.4513L21.4911 18.4592L21.4926 18.4671L21.4941 18.4749L21.4956 18.4828L21.4971 18.4907L21.4986 18.4986L21.5001 18.5064L21.5014 18.5143L21.5027 18.5222L21.5041 18.5301L21.5054 18.5379L21.5067 18.5458L21.508 18.5537L21.5093 18.5616L21.5106 18.5694L21.5119 18.5773L21.5131 18.5852L21.5142 18.5931L21.5153 18.6009L21.5164 18.6088L21.5176 18.6167L21.5187 18.6246L21.5198 18.6324L21.5207 18.6403L21.5217 18.6482L21.5226 18.6561L21.5236 18.6639L21.5245 18.6718L21.5254 18.6797L21.5264 18.6876L21.5273 18.6954L21.5281 18.7033L21.5288 18.7112L21.5296 18.7191L21.5303 18.7269L21.5311 18.7348L21.5318 18.7427L21.5326 18.7507L21.5331 18.7588L21.5337 18.7669L21.5342 18.7749L21.5348 18.783L21.5354 18.7911L21.5359 18.7991L21.5365 18.8072L21.5371 18.8152L21.5374 18.8233L21.5378 18.8314L21.5382 18.8394L21.5386 18.8475L21.5389 18.8556L21.5393 18.8636L21.5397 18.8717L21.5399 18.8797L21.5401 18.8878L21.5402 18.8959L21.5404 18.9039L21.5406 18.912L21.5408 18.9201L21.541 18.9281V18.9604H19.0204L18.9951 18.9596Z" fill="#004CFF"/>
<path opacity="0.6" d="M18.9951 18.9594L19.0219 18.888L19.0487 18.8166L19.0756 18.7451L19.1024 18.6737L19.1292 18.6022L19.156 18.5308L19.1828 18.4594L19.2096 18.3879L19.2364 18.3165L19.2632 18.2451L19.2901 18.1736L19.3169 18.1022L19.3437 18.0307L19.3705 17.9593L19.3973 17.8879L19.4241 17.8164L19.4509 17.745L19.4777 17.6736L19.5046 17.6021L19.5314 17.5307L19.5582 17.4592L19.585 17.3878L19.6118 17.3164L19.6386 17.2449L19.6654 17.1735L19.6922 17.1021L19.7191 17.0306L19.7459 16.9592L19.7727 16.8877L19.7995 16.8163L19.8263 16.7449L19.8531 16.6734L19.8799 16.602L19.9067 16.5306L19.9336 16.4591L19.9604 16.3877L19.9872 16.3162L20.014 16.2448L20.0408 16.1734L20.0676 16.1019L20.0944 16.0305L20.1212 15.9591L20.1481 15.8876L20.1749 15.8162L20.2017 15.7447L20.2285 15.6733L20.2553 15.6019L20.2821 15.5304L20.3089 15.459L20.3357 15.3876L20.3626 15.3161L20.3894 15.2447L20.4162 15.1732L20.443 15.1018L20.4698 15.0304L20.4966 14.9589L20.5234 14.8875L20.5502 14.8161L20.5771 14.7446L20.6039 14.6732L20.6307 14.6017L20.6575 14.5303L20.6843 14.4589L20.7111 14.3874L20.7379 14.316L20.7647 14.2446L20.7916 14.1731L20.8184 14.1017L20.8452 14.0302L20.872 13.9588L20.8988 13.8874L20.9256 13.8159L20.9524 13.7445L20.9792 13.6731L21.0061 13.6016L21.0329 13.5302L21.0597 13.4587L21.0865 13.3873L21.1133 13.3159L21.1401 13.2444L21.1669 13.173L21.1937 13.1016L21.2206 13.0301L21.2474 12.9587L21.2742 12.8872L21.301 12.8158L21.3278 12.7444L21.3546 12.6729L21.3814 12.6015L21.4082 12.5301L21.4351 12.4586L21.4619 12.3872L21.4887 12.3157L21.5155 12.2443L21.5423 12.1729L21.5691 12.1014L21.5959 12.03L21.6248 11.9529L21.6516 11.8815L21.6784 11.8101L21.7009 11.8185L21.7234 11.8271L21.7457 11.8357L21.7681 11.8444L21.7904 11.8532L21.8127 11.862L21.835 11.8708L21.8573 11.8798L21.8796 11.8888L21.9017 11.898L21.9239 11.9072L21.946 11.9164L21.9681 11.9257L21.9902 11.9351L22.0124 11.9445L22.0343 11.9541L22.0562 11.9636L22.0782 11.9732L22.1001 11.9829L22.1221 11.9927L22.144 12.0026L22.1657 12.0126L22.1875 12.0225L22.2092 12.0326L22.231 12.0427L22.2527 12.0529L22.2745 12.0632L22.2961 12.0735L22.3176 12.0838L22.3392 12.0943L22.3607 12.1048L22.3823 12.1155L22.4039 12.1262L22.4252 12.1369L22.4466 12.1477L22.468 12.1586L22.4894 12.1695L22.5107 12.1806L22.5319 12.1916L22.5531 12.2027L22.5743 12.2139L22.5955 12.2252L22.6167 12.2366L22.6379 12.2481L22.6589 12.2595L22.6799 12.2711L22.7009 12.2827L22.7219 12.2944L22.7429 12.3062L22.7637 12.318L22.7845 12.3298L22.8053 12.3418L22.8261 12.3538L22.8469 12.3658L22.8676 12.378L22.8882 12.3902L22.9088 12.4024L22.9294 12.4147L22.9501 12.4271L22.9705 12.4395L22.9909 12.4521L23.0114 12.4646L23.0318 12.4772L23.0521 12.4899L23.0723 12.5027L23.0926 12.5154L23.1128 12.5284L23.1331 12.5413L23.1531 12.5542L23.1732 12.5674L23.1932 12.5805L23.2133 12.5938L23.2334 12.6071L23.2532 12.6204L23.2731 12.6339L23.293 12.6474L23.3129 12.6609L23.3326 12.6746L23.3522 12.6883L23.3719 12.702L23.3916 12.7159L23.4111 12.7297L23.4306 12.7436L23.4501 12.7575L23.4696 12.7716L23.4891 12.7856L23.5084 12.7997L23.5277 12.8139L23.5471 12.8282L23.5664 12.8424L23.5855 12.8569L23.6046 12.8713L23.6237 12.8857L23.6429 12.9004L23.6618 12.915L23.6807 12.9296L23.6997 12.9444L23.7186 12.9592L23.7374 12.9741L23.7561 12.9891L23.7085 13.0487L23.6609 13.1083L23.6132 13.1679L23.5656 13.2276L23.518 13.2872L23.4704 13.3468L23.4227 13.4064L23.3751 13.4661L23.3275 13.5257L23.2799 13.5853L23.2322 13.6449L23.1846 13.7046L23.137 13.7642L23.0897 13.8249L23.0421 13.8846L22.9945 13.9442L22.9469 14.0038L22.8992 14.0634L22.8516 14.1231L22.8042 14.1831L22.7566 14.2427L22.7089 14.3023L22.6613 14.3619L22.6137 14.4216L22.5661 14.4812L22.5184 14.5408L22.4708 14.6004L22.4232 14.6601L22.3756 14.7197L22.3279 14.7793L22.2803 14.8389L22.2327 14.8986L22.1851 14.9582L22.1374 15.0178L22.0898 15.0774L22.0422 15.1371L21.9946 15.1967L21.9469 15.2563L21.8993 15.3159L21.8517 15.3756L21.8041 15.4352L21.7564 15.4948L21.7088 15.5544L21.6612 15.6141L21.6136 15.6737L21.5659 15.7333L21.5183 15.7929L21.4707 15.8526L21.4231 15.9122L21.3754 15.9718L21.3278 16.0314L21.2806 16.0937L21.2329 16.1533L21.1853 16.2129L21.1377 16.2726L21.0901 16.3322L21.0424 16.3918L20.9948 16.4518L20.9472 16.5114L20.8996 16.5711L20.8519 16.6307L20.8043 16.6903L20.7567 16.7499L20.7091 16.8096L20.6614 16.8692L20.6138 16.9288L20.5662 16.9884L20.5186 17.0481L20.4709 17.1077L20.4233 17.1673L20.3757 17.2269L20.3281 17.2866L20.2804 17.3462L20.2328 17.4058L20.1852 17.4654L20.1376 17.5251L20.0899 17.5847L20.0423 17.6443L19.9947 17.7039L19.9471 17.7636L19.8998 17.8251L19.8522 17.8847L19.8046 17.9443L19.7569 18.0039L19.7093 18.0636L19.6617 18.1232L19.6141 18.1828L19.5664 18.2424L19.5188 18.3021L19.4712 18.3617L19.4236 18.4213L19.3759 18.4809L19.3283 18.5406L19.2807 18.6002L19.2331 18.6598L19.1854 18.7194L19.1378 18.7791L19.0902 18.8387L19.0426 18.8983L18.9951 18.9594Z" fill="#CEFF29"/>
<path opacity="0.6" d="M18.9954 18.9594L18.9302 18.8812L18.8649 18.803L18.7997 18.7248L18.7344 18.6466L18.6692 18.5685L18.6039 18.4903L18.5387 18.4121L18.4734 18.3339L18.4082 18.2557L18.3429 18.1775L18.2777 18.0993L18.2124 18.0211L18.1472 17.943L18.0819 17.8648L18.0167 17.7866L17.9514 17.7084L17.8862 17.6302L17.8209 17.552L17.7557 17.4738L17.6904 17.3956L17.6252 17.3175L17.5599 17.2393L17.4947 17.1611L17.4294 17.0829L17.3642 17.0047L17.2989 16.9265L17.2337 16.8483L17.1684 16.7701L17.1032 16.692L17.0379 16.6138L16.9727 16.5356L16.9074 16.4574L16.8422 16.3792L16.7769 16.301L16.7117 16.2228L16.6464 16.1446L16.5812 16.0665L16.5159 15.9883L16.4507 15.9101L16.3854 15.8319L16.3202 15.7537L16.2549 15.6755L16.1897 15.5973L16.1244 15.5191L16.0592 15.441L15.9939 15.3628L15.9287 15.2846L15.8634 15.2064L15.7982 15.1282L15.7329 15.05L15.6677 14.9718L15.6024 14.8936L15.5372 14.8155L15.4719 14.7373L15.4067 14.6591L15.3414 14.5809L15.2762 14.5027L15.2109 14.4245L15.1457 14.3463L15.0804 14.2681L15.0152 14.19L14.9499 14.1118L14.8847 14.0336L14.8194 13.9554L14.7542 13.8772L14.6889 13.799L14.6237 13.7208L14.5584 13.6426L14.4932 13.5645L14.4279 13.4863L14.3627 13.4081L14.2974 13.3299L14.2322 13.2517L14.1669 13.1735L14.1017 13.0953L14.0364 13.0171L13.9712 12.939L13.9059 12.8608L13.8407 12.7826L13.7754 12.7044L13.7102 12.6262L13.6449 12.548L13.5797 12.4698L13.5144 12.3916L13.4492 12.3135L13.3839 12.2353L13.3187 12.1571L13.2534 12.0789L13.1882 12.0007L13.1229 11.9225L13.0577 11.8443L12.9924 11.7661L12.9272 11.688L12.8617 11.6124L12.7965 11.5342L12.7312 11.456L12.666 11.3778L12.6007 11.2996L12.5355 11.2215L12.4702 11.1433L12.5072 11.1125L12.5443 11.082L12.5814 11.0516L12.6187 11.0214L12.6562 10.9914L12.6939 10.9616L12.7316 10.932L12.7695 10.9025L12.8075 10.8733L12.8458 10.8442L12.884 10.8153L12.9225 10.7866L12.9611 10.7581L12.9997 10.7298L13.0385 10.7017L13.0775 10.6738L13.1167 10.646L13.1559 10.6185L13.1953 10.5911L13.2348 10.5639L13.2744 10.5369L13.3142 10.5101L13.3541 10.4835L13.394 10.457L13.4342 10.4308L13.4745 10.4047L13.5148 10.3788L13.5553 10.3531L13.596 10.3276L13.6367 10.3023L13.6775 10.2772L13.7186 10.2523L13.7597 10.2275L13.8009 10.203L13.8422 10.1786L13.8836 10.1544L13.9252 10.1304L13.9668 10.1066L14.0087 10.083L14.0505 10.0595L14.0925 10.0363L14.1347 10.0132L14.1768 9.99033L14.2192 9.96765L14.2616 9.94515L14.3042 9.92302L14.3467 9.90108L14.3895 9.87933L14.4322 9.85777L14.4752 9.8364L14.5183 9.81521L14.5614 9.79421L14.6047 9.7734L14.648 9.75277L14.6915 9.73233L14.735 9.71208L14.7787 9.69202L14.8224 9.67233L14.8663 9.65283L14.9102 9.63352L14.9542 9.6144L14.9983 9.59546L15.0425 9.57671L15.0868 9.55815L15.1312 9.53977L15.1757 9.52158L15.2201 9.50377L15.2647 9.48615L15.3093 9.46871L15.3542 9.45146L15.399 9.4344L15.444 9.41752L15.489 9.40083L15.534 9.38433L15.5792 9.36821L15.6243 9.35227L15.6697 9.33652L15.7151 9.32096L15.7605 9.30558L15.806 9.2904L15.8516 9.2754L15.8973 9.26077L15.9431 9.24633L15.9888 9.23208L16.0348 9.21802L16.0807 9.20415L16.1267 9.19046L16.1728 9.17696L16.2189 9.16383L16.265 9.1509L16.3113 9.13815L16.3577 9.12558L16.404 9.11321L16.4505 9.10102L16.497 9.08921L16.5435 9.07758L16.5902 9.06615L16.6368 9.0549L16.6835 9.04383L16.7302 9.03296L16.7529 9.13215L16.7756 9.23133L16.7983 9.33052L16.821 9.42971L16.8437 9.5289L16.8663 9.62808L16.889 9.72727L16.9117 9.82646L16.9344 9.92565L16.9571 10.0248L16.9798 10.124L17.0025 10.2232L17.0252 10.3224L17.0478 10.4216L17.0705 10.5208L17.0932 10.62L17.1159 10.7191L17.1386 10.8183L17.1613 10.9175L17.184 11.0167L17.2067 11.1159L17.2293 11.2151L17.252 11.3143L17.2747 11.4135L17.2974 11.5126L17.3201 11.6118L17.3428 11.711L17.3655 11.8102L17.3882 11.9094L17.4108 12.0086L17.4335 12.1078L17.4562 12.207L17.4789 12.3061L17.5001 12.408L17.5228 12.5071L17.5455 12.6063L17.5682 12.7055L17.5908 12.8047L17.6135 12.9039L17.6362 13.0031L17.6589 13.1023L17.6816 13.2015L17.7043 13.3006L17.727 13.3998L17.7497 13.499L17.7723 13.5982L17.795 13.6974L17.8177 13.7966L17.8404 13.8958L17.8631 13.995L17.8858 14.0941L17.9085 14.1933L17.9312 14.2925L17.9538 14.3917L17.9765 14.4909L17.9992 14.5901L18.0219 14.6893L18.0446 14.7885L18.0673 14.8876L18.09 14.9868L18.1127 15.086L18.1353 15.1852L18.158 15.2844L18.1807 15.3836L18.2034 15.4828L18.2261 15.582L18.2488 15.6811L18.2715 15.7803L18.2942 15.8795L18.3168 15.9787L18.3395 16.0779L18.3622 16.1771L18.3849 16.2763L18.4076 16.3755L18.4303 16.4746L18.453 16.5738L18.4757 16.673L18.4983 16.7722L18.521 16.8714L18.5437 16.9706L18.5664 17.0698L18.5891 17.169L18.6118 17.2681L18.6345 17.3673L18.6572 17.4665L18.6798 17.5657L18.7025 17.6649L18.7252 17.7641L18.7479 17.8633L18.7706 17.9625L18.7933 18.0616L18.816 18.1608L18.8387 18.26L18.8613 18.3592L18.884 18.4584L18.9067 18.5576L18.9294 18.6568L18.9521 18.756L18.9748 18.8551L18.9954 18.9594Z" fill="#FF6800"/>
<path opacity="0.6" d="M18.9951 18.9594L18.9074 18.9754L18.8196 18.9913L18.7319 19.0073L18.6441 19.0232L18.5564 19.0391L18.4686 19.0551L18.3809 19.071L18.2931 19.0869L18.2054 19.1029L18.1186 19.1184L18.0308 19.1344L17.9431 19.1503L17.8553 19.1663L17.7676 19.1822L17.6798 19.1981L17.5921 19.2141L17.5043 19.23L17.4166 19.2459L17.3288 19.2619L17.2411 19.2778L17.1533 19.2938L17.0667 19.3093L16.9789 19.3253L16.8912 19.3412L16.8034 19.3571L16.7161 19.3731L16.6283 19.389L16.5406 19.4049L16.4528 19.4209L16.3651 19.4368L16.2773 19.4528L16.1896 19.4687L16.1018 19.4846L16.0141 19.5006L15.9263 19.5165L15.8386 19.5324L15.7508 19.5484L15.6631 19.5643L15.5753 19.5803L15.4876 19.5962L15.3998 19.6121L15.3121 19.6281L15.2243 19.644L15.1366 19.6599L15.0488 19.6759L14.9611 19.6918L14.8733 19.7078L14.7856 19.7237L14.6978 19.7396L14.6123 19.7548L14.5246 19.7708L14.4368 19.7867L14.3491 19.8026L14.2613 19.8186L14.1736 19.8345L14.0858 19.8504L13.9981 19.8664L13.9103 19.8823L13.8226 19.8983L13.7348 19.9142L13.6471 19.9301L13.5593 19.9461L13.4716 19.962L13.3838 19.9779L13.2961 19.9939L13.2083 20.0098L13.1206 20.0258L13.0328 20.0417L12.9451 20.0576L12.8573 20.0736L12.7696 20.0895L12.6818 20.1054L12.5941 20.1214L12.5063 20.1373L12.4186 20.1533L12.3308 20.1692L12.2431 20.1851L12.1553 20.2011L12.0676 20.217L11.9798 20.2329L11.8921 20.2489L11.8043 20.2648L11.7166 20.2808L11.6288 20.2967L11.5411 20.3126L11.4567 20.3274L11.3689 20.3434L11.2812 20.3593L11.1934 20.3752L11.1061 20.3912L11.0183 20.4071L10.9306 20.4231L10.8428 20.439L10.7551 20.4549L10.6673 20.4709L10.5796 20.4868L10.4918 20.5027L10.4041 20.5187L10.3163 20.5346L10.2286 20.5506L10.2188 20.4954L10.2092 20.4403L10.2001 20.385L10.1912 20.3297L10.1828 20.2744L10.1757 20.2187L10.168 20.1632L10.1607 20.1077L10.1536 20.0522L10.1468 19.9967L10.1404 19.941L10.1344 19.8853L10.1288 19.8296L10.1236 19.7739L10.1187 19.7183L10.1142 19.6624L10.1099 19.6065L10.1059 19.5506L10.1024 19.4948L10.0992 19.4389L10.0964 19.383L10.0939 19.3271L10.0919 19.2712L10.0902 19.2154L10.0887 19.1595L10.0876 19.1036L10.0868 19.0476L10.0864 18.9915V18.9354L10.0868 18.8794L10.0876 18.8233L10.0885 18.7674L10.0898 18.7116L10.0915 18.6557L10.0936 18.5998L10.096 18.5439L10.0988 18.4881L10.102 18.4322L10.1056 18.3763L10.1093 18.3204L10.1134 18.2646L10.1179 18.2087L10.1228 18.153L10.1281 18.0973L10.1337 18.0416L10.1397 17.9859L10.1461 17.9302L10.1526 17.8748L10.1596 17.8192L10.1669 17.7638L10.1746 17.7083L10.1826 17.6529L10.1911 17.5976L10.1999 17.5423L10.2089 17.487L10.2182 17.4319L10.228 17.3767L10.2381 17.3216L10.2486 17.2667L10.2595 17.2118L10.2706 17.1568L10.282 17.1021L10.2938 17.0473L10.306 16.9927L10.3186 16.9382L10.3315 16.8836L10.3446 16.8293L10.3581 16.7749L10.372 16.7207L10.3862 16.6665L10.4009 16.6125L10.4159 16.5585L10.4311 16.5047L10.4466 16.4509L10.4626 16.3972L10.4789 16.3436L10.4956 16.2902L10.5124 16.2368L10.5297 16.1835L10.5473 16.1304L10.5653 16.0774L10.5835 16.0245L10.6021 15.9716L10.621 15.9189L10.6403 15.8664L10.66 15.8139L10.6799 15.7616L10.7001 15.7095L10.7207 15.6574L10.7417 15.6054L10.7629 15.5537L10.7845 15.5019L10.8064 15.4504L10.8286 15.399L10.8511 15.3478L10.8739 15.2966L10.8972 15.2456L10.9206 15.1948L10.9444 15.1442L10.9686 15.0938L11.0489 15.1324L11.1291 15.171L11.2094 15.2096L11.2896 15.2483L11.3699 15.2869L11.4501 15.3255L11.5304 15.3641L11.6106 15.4027L11.6909 15.4414L11.7711 15.48L11.8514 15.5186L11.9316 15.5573L12.0119 15.5959L12.0921 15.6345L12.1724 15.6731L12.2526 15.7118L12.3329 15.7504L12.4131 15.789L12.4934 15.8276L12.5736 15.8662L12.6539 15.9049L12.7341 15.9435L12.8144 15.9821L12.8946 16.0208L12.9749 16.0594L13.0551 16.098L13.1354 16.1366L13.2156 16.1753L13.2959 16.2139L13.3761 16.2525L13.4564 16.2911L13.5366 16.3297L13.6169 16.3684L13.6971 16.407L13.7774 16.4456L13.8576 16.4843L13.9379 16.5229L14.0181 16.5615L14.0984 16.6001L14.1786 16.6388L14.2589 16.6774L14.3391 16.716L14.4194 16.7546L14.4996 16.7932L14.5799 16.8319L14.6601 16.8705L14.7404 16.9091L14.8206 16.9478L14.9009 16.9864L14.9811 17.025L15.0614 17.0636L15.1416 17.1023L15.2219 17.1409L15.3021 17.1795L15.3824 17.2181L15.4626 17.2567L15.5429 17.2954L15.6231 17.334L15.7034 17.3726L15.7836 17.4113L15.8639 17.4499L15.9441 17.4885L16.0244 17.5271L16.1046 17.5658L16.1849 17.6044L16.2651 17.643L16.3454 17.6816L16.4256 17.7202L16.5059 17.7589L16.5861 17.7975L16.6664 17.8361L16.7466 17.8748L16.8269 17.9134L16.9071 17.952L16.9874 17.9906L17.0676 18.0293L17.1479 18.0679L17.2281 18.1065L17.3084 18.1451L17.3886 18.1837L17.4689 18.2224L17.5491 18.261L17.6294 18.2996L17.7096 18.3383L17.7899 18.3769L17.8701 18.4155L17.9504 18.4541L18.0306 18.4927L18.1109 18.5314L18.1911 18.57L18.2714 18.6086L18.3516 18.6472L18.4319 18.6859L18.5121 18.7245L18.5924 18.7631L18.6726 18.8018L18.7529 18.8404L18.8331 18.879L18.9134 18.9176L18.9951 18.9594Z" fill="#FFC400"/>
<path opacity="0.6" d="M18.9955 18.9595L18.9537 18.9885L18.9119 19.0176L18.8701 19.0467L18.8283 19.0757L18.7864 19.1048L18.7446 19.1338L18.7028 19.1629L18.6608 19.1912L18.619 19.2203L18.5772 19.2493L18.5354 19.2784L18.4936 19.3075L18.4518 19.3365L18.4099 19.3656L18.3681 19.3947L18.3263 19.4237L18.2845 19.4528L18.2427 19.4818L18.2009 19.5109L18.1591 19.54L18.1173 19.569L18.0754 19.5981L18.0336 19.6272L17.9918 19.6562L17.95 19.6853L17.9082 19.7143L17.8664 19.7434L17.8246 19.7725L17.7828 19.8015L17.7409 19.8306L17.6991 19.8597L17.6573 19.8887L17.6155 19.9178L17.5737 19.9468L17.5319 19.9759L17.4901 20.005L17.4483 20.034L17.4064 20.0631L17.3646 20.0922L17.3228 20.1212L17.281 20.1503L17.2392 20.1793L17.1974 20.2084L17.1556 20.2375L17.1138 20.2665L17.0719 20.2956L17.0301 20.3247L16.9883 20.3537L16.9465 20.3828L16.9047 20.4118L16.8629 20.4409L16.8211 20.47L16.7793 20.499L16.7374 20.5281L16.6939 20.5538L16.6521 20.5828L16.6103 20.6119L16.5685 20.641L16.5267 20.67L16.4849 20.6991L16.4431 20.7282L16.4013 20.7572L16.3594 20.7863L16.3176 20.8153L16.2758 20.8444L16.234 20.8735L16.1922 20.9025L16.1504 20.9316L16.1086 20.9607L16.0668 20.9897L16.0249 21.0188L15.9831 21.0478L15.9413 21.0769L15.8995 21.106L15.8577 21.135L15.8159 21.1641L15.7741 21.1932L15.7323 21.2222L15.6904 21.2513L15.6486 21.2803L15.6068 21.3094L15.565 21.3385L15.5232 21.3675L15.4814 21.3966L15.4396 21.4257L15.3978 21.4547L15.3559 21.4838L15.3141 21.5128L15.2723 21.5419L15.2305 21.571L15.1887 21.6L15.1469 21.6291L15.1051 21.6582L15.0633 21.6872L15.0214 21.7163L14.9796 21.7453L14.9378 21.7744L14.896 21.8035L14.8527 21.8293L14.8109 21.8584L14.8064 21.8518L14.8019 21.8453L14.7974 21.8387L14.7929 21.8322L14.7884 21.8256L14.7839 21.819L14.7794 21.8125L14.7749 21.8059L14.7704 21.7993L14.7659 21.7928L14.7614 21.7862L14.7569 21.7797L14.7524 21.7729L14.7479 21.7662L14.7436 21.7594L14.7393 21.7527L14.7349 21.7459L14.7306 21.7392L14.7263 21.7324L14.722 21.7257L14.7177 21.7189L14.7134 21.7122L14.7091 21.7054L14.7048 21.6987L14.7004 21.6919L14.6961 21.6852L14.6918 21.6784L14.6875 21.6717L14.6832 21.6649L14.6789 21.6582L14.6746 21.6514L14.6703 21.6447L14.6661 21.6379L14.662 21.6312L14.6579 21.6244L14.6538 21.6177L14.6496 21.6109L14.6455 21.6042L14.6414 21.5974L14.6373 21.5907L14.6331 21.5837L14.629 21.5768L14.6249 21.5698L14.6208 21.5629L14.6166 21.556L14.6125 21.549L14.6084 21.5421L14.6043 21.5352L14.6001 21.5282L14.5962 21.5213L14.5923 21.5143L14.5883 21.5074L14.5844 21.5005L14.5804 21.4935L14.5765 21.4866L14.5726 21.4797L14.5686 21.4727L14.5647 21.4658L14.5608 21.4588L14.5568 21.4519L14.5529 21.445L14.5489 21.438L14.545 21.4311L14.5411 21.4242L14.5371 21.4172L14.5332 21.4103L14.5293 21.4033L14.5255 21.3964L14.5218 21.3895L14.518 21.3825L14.5143 21.3754L14.5105 21.3683L14.5068 21.3612L14.503 21.354L14.4993 21.3469L14.4955 21.3398L14.4918 21.3327L14.488 21.3255L14.4843 21.3184L14.4805 21.3113L14.4768 21.3042L14.473 21.297L14.4693 21.2899L14.4657 21.2828L14.4621 21.2757L14.4586 21.2685L14.455 21.2614L14.4514 21.2543L14.4479 21.2472L14.4443 21.24L14.4408 21.2329L14.4372 21.2258L14.4336 21.2187L14.4301 21.2115L14.4265 21.2044L14.4229 21.1973L14.4194 21.1902L14.4158 21.1825L14.4123 21.1753L14.4087 21.1682L14.4546 21.1461L14.5006 21.124L14.5465 21.1018L14.5924 21.0797L14.6384 21.0576L14.6843 21.0355L14.7303 21.0133L14.7762 20.9912L14.8221 20.9691L14.8681 20.947L14.914 20.9248L14.9599 20.9027L15.0059 20.8806L15.0518 20.8585L15.0978 20.8363L15.1437 20.8142L15.1896 20.7921L15.2356 20.77L15.2815 20.7478L15.3274 20.7257L15.3734 20.7036L15.4193 20.6815L15.4653 20.6593L15.5112 20.6372L15.5571 20.6151L15.6031 20.593L15.649 20.5708L15.6949 20.5487L15.7409 20.5266L15.7868 20.5045L15.8328 20.4823L15.8787 20.4602L15.9246 20.4381L15.9706 20.416L16.0165 20.3938L16.0624 20.3717L16.1084 20.3496L16.1543 20.3275L16.2003 20.3053L16.2462 20.2832L16.2921 20.2611L16.3381 20.239L16.384 20.2168L16.4299 20.1947L16.4759 20.1726L16.5218 20.1505L16.5678 20.1283L16.6137 20.1062L16.6596 20.0841L16.7056 20.062L16.7515 20.0398L16.7974 20.0177L16.8434 19.9956L16.8893 19.9735L16.9353 19.9513L16.9812 19.9292L17.0271 19.9071L17.0731 19.885L17.119 19.8628L17.1649 19.8407L17.2109 19.8186L17.2568 19.7965L17.3028 19.7743L17.3487 19.7522L17.3946 19.7301L17.4406 19.708L17.4865 19.6858L17.5324 19.6637L17.5784 19.6416L17.6243 19.6195L17.6703 19.5973L17.7162 19.5752L17.7621 19.5531L17.8081 19.531L17.854 19.5088L17.8999 19.4867L17.9459 19.4646L17.9918 19.4425L18.0378 19.4203L18.0837 19.3982L18.1296 19.3761L18.1756 19.354L18.2215 19.3318L18.2674 19.3097L18.3134 19.2876L18.3593 19.2655L18.4053 19.2433L18.4512 19.2212L18.4971 19.1991L18.5431 19.177L18.589 19.1548L18.6349 19.1327L18.6809 19.1106L18.7268 19.0885L18.7728 19.0663L18.8187 19.0442L18.8646 19.0221L18.9106 19L18.9565 18.9778L18.9955 18.9595Z" fill="#29FFCE"/>
<path opacity="0.6" d="M18.9954 18.9595L19.0061 19.0223L19.0168 19.0851L19.0275 19.1479L19.0382 19.2107L19.0488 19.2735L19.0595 19.3363L19.0702 19.3992L19.0809 19.462L19.0916 19.5248L19.1023 19.5876L19.113 19.6504L19.1237 19.7132L19.1343 19.776L19.145 19.8388L19.1557 19.9017L19.1664 19.9645L19.1771 20.0273L19.1878 20.0901L19.1985 20.1529L19.2092 20.2157L19.2198 20.2785L19.2305 20.3413L19.2412 20.4042L19.2519 20.467L19.2626 20.5298L19.2733 20.5926L19.284 20.6554L19.2947 20.7182L19.3053 20.781L19.316 20.8438L19.3267 20.9067L19.3374 20.9695L19.3481 21.0323L19.3588 21.0951L19.3695 21.1579L19.3802 21.2207L19.3908 21.2835L19.4015 21.3463L19.4122 21.4092L19.4229 21.472L19.4336 21.5348L19.4443 21.5976L19.455 21.6604L19.4657 21.7232L19.4763 21.786L19.487 21.8488L19.4977 21.9117L19.5084 21.9745L19.5191 22.0373L19.5298 22.1001L19.5405 22.1629L19.5512 22.2257L19.5618 22.2885L19.5725 22.3513L19.5832 22.4142L19.5939 22.477L19.6046 22.5398L19.6153 22.6026L19.626 22.6654L19.6367 22.7282L19.6473 22.791L19.658 22.8538L19.6687 22.9167L19.6794 22.9795L19.6901 23.0423L19.7008 23.1051L19.7115 23.1679L19.7222 23.2307L19.7328 23.2935L19.7435 23.3563L19.7542 23.4192L19.7649 23.482L19.7756 23.5448L19.7863 23.6076L19.797 23.6704L19.8077 23.7332L19.8183 23.796L19.829 23.8588L19.8397 23.9217L19.8504 23.9845L19.8611 24.0473L19.8718 24.1101L19.8825 24.1729L19.8932 24.2357L19.9038 24.2985L19.9145 24.3613L19.9252 24.4242L19.9359 24.487L19.9466 24.5498L19.9573 24.6126L19.968 24.6754L19.9787 24.7382L19.9893 24.801L20 24.8638L20.0107 24.9267L20.0214 24.9895L20.0321 25.0523L20.0428 25.1151L20.0535 25.1779L20.0642 25.2407L20.0396 25.2448L20.0148 25.249L19.9901 25.2529L19.9653 25.2568L19.9406 25.2606L19.9158 25.2642L19.8911 25.2677L19.8663 25.2711L19.8416 25.2745L19.8168 25.2777L19.7921 25.2808L19.7673 25.2838L19.7426 25.2868L19.7178 25.2897L19.6931 25.2925L19.6683 25.2951L19.6434 25.2977L19.6185 25.3002L19.5935 25.3026L19.5686 25.3048L19.5437 25.3071L19.5187 25.3092L19.4938 25.3112L19.4688 25.3131L19.4439 25.315L19.419 25.3167L19.394 25.3183L19.3691 25.3198L19.3442 25.3212L19.3192 25.3225L19.2943 25.3238L19.2693 25.3249L19.2444 25.3258L19.2195 25.3268L19.1945 25.3275L19.1696 25.3283L19.1447 25.3288L19.1197 25.3294L19.0948 25.3298L19.0698 25.3302L19.0449 25.3303L19.02 25.3305H18.9701L18.9452 25.3303L18.9202 25.3302L18.8953 25.3298L18.8703 25.3294L18.8454 25.3288L18.8205 25.3283L18.7955 25.3275L18.7668 25.3187L18.7419 25.3178L18.717 25.3168L18.692 25.3157L18.6671 25.3144L18.642 25.3131L18.617 25.3116L18.5921 25.3101L18.5672 25.3084L18.5422 25.3067L18.5173 25.3048L18.4923 25.303L18.4674 25.3009L18.4425 25.2988L18.4175 25.2966L18.3926 25.2943L18.3677 25.2919L18.3427 25.2895L18.3178 25.2868L18.293 25.284L18.2687 25.2812L18.2439 25.2784L18.2192 25.2754L18.1944 25.2722L18.1697 25.269L18.1449 25.2657L18.1202 25.2623L18.0954 25.2587L18.0707 25.2552L18.0459 25.2514L18.0212 25.2477L17.9964 25.2437L17.9717 25.2398L17.9471 25.2357L17.9225 25.2315L17.898 25.2272L17.8734 25.2229L17.8488 25.2184L17.8243 25.2139L17.7997 25.2092L17.7752 25.2045L17.7506 25.1997L17.726 25.1948L17.7015 25.1897L17.6771 25.1847L17.6527 25.1794L17.6283 25.1742L17.604 25.1687L17.5796 25.1633L17.5938 25.1012L17.6081 25.0392L17.6223 24.9771L17.6366 24.915L17.6508 24.853L17.6651 24.7909L17.6793 24.7288L17.6936 24.6668L17.7078 24.6047L17.7221 24.5427L17.7363 24.4806L17.7506 24.4185L17.7648 24.3565L17.7791 24.2944L17.7933 24.2323L17.8076 24.1703L17.8218 24.1082L17.8361 24.0462L17.8503 23.9841L17.8646 23.922L17.8788 23.86L17.8931 23.7979L17.9073 23.7358L17.9216 23.6738L17.9358 23.6117L17.9501 23.5497L17.9643 23.4876L17.9786 23.4255L17.9928 23.3635L18.0071 23.3014L18.0213 23.2393L18.0356 23.1773L18.0498 23.1152L18.0641 23.0532L18.0783 22.9911L18.0926 22.929L18.1068 22.867L18.1211 22.8049L18.1353 22.7428L18.1496 22.6808L18.1638 22.6187L18.1781 22.5567L18.1923 22.4946L18.2066 22.4325L18.2208 22.3705L18.2351 22.3084L18.2493 22.2463L18.2636 22.1843L18.2778 22.1222L18.2921 22.0602L18.3063 21.9981L18.3206 21.936L18.3348 21.874L18.3491 21.8119L18.3633 21.7498L18.3776 21.6878L18.3918 21.6257L18.4061 21.5637L18.4203 21.5016L18.4346 21.4395L18.4488 21.3775L18.4631 21.3154L18.4773 21.2533L18.4916 21.1913L18.5058 21.1292L18.5201 21.0672L18.5343 21.0051L18.5486 20.943L18.5628 20.881L18.5771 20.8189L18.5913 20.7568L18.6056 20.6948L18.6198 20.6327L18.6341 20.5707L18.6483 20.5086L18.6626 20.4465L18.6768 20.3845L18.6911 20.3224L18.7053 20.2603L18.7196 20.1983L18.7338 20.1362L18.7481 20.0742L18.7623 20.0121L18.7766 19.95L18.7908 19.888L18.8051 19.8259L18.8193 19.7638L18.8336 19.7018L18.8478 19.6397L18.8621 19.5777L18.8763 19.5156L18.8906 19.4535L18.9048 19.3915L18.9191 19.3294L18.9333 19.2673L18.9476 19.2053L18.9618 19.1432L18.9761 19.0812L18.9903 19.0191L18.9954 18.9595Z" fill="#7DFF7A"/>
<path opacity="0.6" d="M18.9951 18.9595L19.0754 19.0221L19.1556 19.0847L19.2359 19.1473L19.3161 19.21L19.3964 19.2726L19.4766 19.3352L19.5569 19.3978L19.6371 19.4605L19.7174 19.5231L19.7976 19.5857L19.8779 19.6483L19.9581 19.711L20.0384 19.7736L20.1186 19.8362L20.1998 19.8981L20.2801 19.9607L20.3603 20.0233L20.4406 20.086L20.5208 20.1486L20.6011 20.2112L20.6813 20.2738L20.7616 20.3365L20.8418 20.3991L20.9221 20.4617L21.0023 20.5243L21.0826 20.587L21.1628 20.6496L21.2431 20.7122L21.3233 20.7748L21.4036 20.8375L21.4838 20.9001L21.5641 20.9627L21.6443 21.0253L21.7246 21.088L21.8048 21.1506L21.8851 21.2132L21.9653 21.2758L22.0456 21.3385L22.1258 21.4011L22.2061 21.4637L22.2863 21.5263L22.3666 21.589L22.4468 21.6516L22.5271 21.7142L22.6073 21.7768L22.6876 21.8395L22.7678 21.9021L22.8481 21.9647L22.9283 22.0273L23.0086 22.09L23.0888 22.1526L23.1691 22.2152L23.2493 22.2778L23.3296 22.3405L23.4098 22.4031L23.4901 22.4657L23.5703 22.5283L23.6506 22.591L23.7308 22.6536L23.8111 22.7162L23.8913 22.7788L23.9716 22.8415L24.0518 22.9041L24.1321 22.9667L24.2123 23.0293L24.2926 23.092L24.3728 23.1546L24.4531 23.2172L24.5333 23.2798L24.6136 23.3425L24.6938 23.4051L24.7741 23.4677L24.8543 23.5303L24.9346 23.593L25.0148 23.6556L25.0951 23.7182L25.1753 23.7808L25.2556 23.8435L25.3358 23.9061L25.4161 23.9687L25.4963 24.0313L25.5766 24.094L25.6568 24.1566L25.7371 24.2192L25.8173 24.2818L25.8976 24.3445L25.9778 24.4071L26.0581 24.4697L26.1383 24.5323L26.2186 24.595L26.2988 24.6576L26.3791 24.7202L26.4593 24.7828L26.5396 24.8455L26.6198 24.9081L26.7001 24.9707L26.7803 25.0333L26.8606 25.096L26.9408 25.1586L27.0211 25.2212L27.0062 25.2402L26.9914 25.2591L26.9766 25.2778L26.9618 25.2966L26.9468 25.3153L26.9318 25.3341L26.9168 25.3528L26.9018 25.3716L26.8866 25.3902L26.8714 25.4087L26.8562 25.4273L26.8411 25.4458L26.8257 25.4644L26.8103 25.4828L26.7949 25.5012L26.7796 25.5195L26.764 25.5379L26.7484 25.5563L26.7329 25.5745L26.7173 25.5927L26.7017 25.6108L26.686 25.629L26.6702 25.6472L26.6545 25.6652L26.6387 25.6832L26.6228 25.7012L26.6069 25.7192L26.5909 25.7372L26.575 25.755L26.5591 25.7728L26.5429 25.7907L26.5268 25.8085L26.5107 25.8263L26.4946 25.8439L26.4782 25.8615L26.4619 25.8792L26.4456 25.8968L26.4293 25.9144L26.413 25.9318L26.3965 25.9493L26.38 25.9667L26.3635 25.9842L26.347 26.0016L26.3303 26.0188L26.3136 26.0361L26.2969 26.0533L26.2802 26.0706L26.2636 26.0878L26.2467 26.1049L26.2298 26.122L26.2129 26.139L26.1961 26.1561L26.1792 26.173L26.1621 26.1898L26.1451 26.2067L26.128 26.2236L26.1109 26.2405L26.0937 26.2572L26.0764 26.2738L26.0592 26.2905L26.0419 26.3072L26.0247 26.3239L26.0072 26.3404L25.9898 26.3569L25.9724 26.3734L25.9549 26.3899L25.9375 26.4062L25.9199 26.4225L25.9022 26.4388L25.8846 26.4552L25.867 26.4715L25.8494 26.4876L25.8366 26.5L25.8188 26.5161L25.801 26.5322L25.7832 26.5482L25.7654 26.5641L25.7474 26.58L25.7294 26.596L25.7114 26.6117L25.6934 26.6275L25.6754 26.6432L25.6572 26.659L25.639 26.6747L25.6208 26.6903L25.6026 26.7058L25.5844 26.7214L25.5661 26.737L25.5477 26.7523L25.5293 26.7677L25.5109 26.7831L25.4926 26.7985L25.474 26.8138L25.4554 26.829L25.4369 26.8442L25.4183 26.8594L25.3997 26.8746L25.381 26.8896L25.3622 26.9046L25.3435 26.9196L25.2799 26.8399L25.2166 26.7604L25.153 26.6807L25.0894 26.601L25.0259 26.5213L24.9623 26.4417L24.8987 26.362L24.8352 26.2823L24.7716 26.2026L24.7081 26.1229L24.6445 26.0432L24.5809 25.9635L24.5174 25.8838L24.4538 25.8042L24.3902 25.7245L24.3267 25.6448L24.2631 25.5651L24.1996 25.4854L24.136 25.4057L24.0724 25.326L24.0089 25.2463L23.9453 25.1667L23.8817 25.087L23.8182 25.0073L23.7546 24.9276L23.6927 24.85L23.6292 24.7703L23.5656 24.6906L23.5021 24.6109L23.4385 24.5312L23.3749 24.4515L23.3114 24.3718L23.2478 24.2922L23.1842 24.2125L23.1207 24.1328L23.0571 24.0531L22.9936 23.9734L22.93 23.8937L22.8664 23.814L22.8029 23.7343L22.7393 23.6547L22.6757 23.575L22.6122 23.4953L22.5486 23.4156L22.4851 23.3359L22.4215 23.2562L22.3579 23.1765L22.2944 23.0968L22.2308 23.0172L22.1672 22.9375L22.1037 22.8578L22.0401 22.7781L21.9766 22.6984L21.913 22.6187L21.8494 22.539L21.7859 22.4593L21.7223 22.3797L21.6587 22.3L21.5952 22.2203L21.5316 22.1406L21.4681 22.0609L21.4045 21.9812L21.3409 21.9015L21.2774 21.8218L21.2138 21.7422L21.1502 21.6625L21.0867 21.5828L21.0231 21.5031L20.9596 21.4234L20.896 21.3437L20.8324 21.264L20.7689 21.1843L20.7053 21.1047L20.6417 21.025L20.5782 20.9453L20.5146 20.8656L20.4511 20.7859L20.3875 20.7062L20.3239 20.6265L20.2604 20.5468L20.1968 20.4672L20.1332 20.3875L20.0697 20.3078L20.0061 20.2281L19.9426 20.1484L19.879 20.0687L19.8154 19.989L19.7519 19.9093L19.6883 19.8297L19.6247 19.75L19.5612 19.6703L19.4976 19.5906L19.4341 19.5109L19.3705 19.4312L19.3069 19.3515L19.2434 19.2718L19.1798 19.1922L19.1162 19.1125L19.0527 19.0328L18.9951 18.9595Z" fill="#FF6800"/>
<path d="M21.5406 19.0372L18.9951 19.037C18.9768 19.0368 18.9592 19.0301 18.9453 19.0181C18.9315 19.0062 18.9223 18.9897 18.9194 18.9716C18.9165 18.9535 18.9202 18.935 18.9296 18.9193C18.9391 18.9036 18.9538 18.8918 18.9711 18.8859L21.3921 18.0995C21.4018 18.0964 21.412 18.0951 21.4222 18.0959C21.4323 18.0967 21.4422 18.0995 21.4513 18.1041C21.4603 18.1087 21.4684 18.1151 21.475 18.1228C21.4817 18.1306 21.4867 18.1395 21.4898 18.1492C21.5751 18.4113 21.6183 18.6842 21.6181 18.9598C21.6181 18.9699 21.6161 18.98 21.6122 18.9894C21.6083 18.9988 21.6026 19.0073 21.5954 19.0145C21.5882 19.0217 21.5797 19.0274 21.5703 19.0313C21.5609 19.0352 21.5508 19.0372 21.5406 19.0372ZM19.4847 18.882H21.4619C21.4557 18.6751 21.4232 18.4698 21.3651 18.2711L19.4847 18.882Z" fill="#2C2C2C"/>
<path d="M18.9954 19.037C18.9829 19.0369 18.9706 19.0339 18.9595 19.0281C18.9484 19.0222 18.9389 19.0138 18.9318 19.0036C18.9247 18.9933 18.9201 18.9815 18.9186 18.9691C18.917 18.9567 18.9185 18.9441 18.9228 18.9323L21.6061 11.7831C21.6096 11.7736 21.615 11.7648 21.6219 11.7573C21.6289 11.7498 21.6372 11.7438 21.6465 11.7396C21.6558 11.7353 21.6658 11.733 21.676 11.7327C21.6862 11.7324 21.6964 11.7341 21.7059 11.7378C22.464 12.0217 23.1724 12.4236 23.8051 12.9286C23.8212 12.9414 23.8315 12.9601 23.8338 12.9805C23.8362 13.0009 23.8303 13.0214 23.8175 13.0375L19.0559 19.0077C19.0486 19.0168 19.0394 19.0241 19.0289 19.0291C19.0185 19.0342 19.007 19.0369 18.9954 19.037ZM21.7239 11.9105L19.2401 18.5283L23.6476 13.0017C23.0635 12.5453 22.4153 12.1776 21.7239 11.9105Z" fill="#2C2C2C"/>
<path d="M18.9955 19.0369C18.9842 19.0368 18.973 19.0343 18.9627 19.0295C18.9525 19.0247 18.9434 19.0178 18.936 19.0092L12.4109 11.1932C12.4043 11.1855 12.3993 11.1764 12.3962 11.1667C12.3931 11.157 12.392 11.1468 12.3929 11.1366C12.3938 11.1265 12.3967 11.1166 12.4015 11.1076C12.4062 11.0986 12.4127 11.0906 12.4206 11.0841C13.6638 10.047 15.1345 9.31829 16.7129 8.95748C16.7329 8.95294 16.754 8.95655 16.7714 8.96752C16.7888 8.97849 16.8011 8.99592 16.8057 9.01598L19.0712 18.9424C19.0751 18.9594 19.0731 18.9772 19.0656 18.993C19.0581 19.0087 19.0456 19.0215 19.03 19.0292C19.0192 19.0343 19.0074 19.0369 18.9955 19.0369ZM12.5796 11.1535L18.8479 18.6617L16.6716 9.12604C15.171 9.48142 13.7714 10.1749 12.5796 11.1535Z" fill="#2C2C2C"/>
<path d="M10.2293 20.6276C10.2112 20.6277 10.1936 20.6213 10.1797 20.6097C10.1657 20.5981 10.1564 20.5819 10.1532 20.564C9.81328 18.7108 10.078 16.7561 10.8989 15.06C10.9078 15.0414 10.9238 15.0272 10.9432 15.0205C10.9626 15.0137 10.9839 15.0149 11.0024 15.0238L19.0289 18.8891C19.0438 18.8961 19.056 18.9077 19.0638 18.9222C19.0716 18.9366 19.0747 18.9532 19.0724 18.9695C19.0702 18.9858 19.0629 19.0009 19.0515 19.0128C19.0401 19.0246 19.0252 19.0325 19.009 19.0353L10.2434 20.6263C10.2388 20.6273 10.2341 20.6277 10.2293 20.6276ZM11.0048 15.1976C10.2355 16.8247 9.98334 18.687 10.2922 20.4601L18.7465 18.9258L11.0048 15.1976Z" fill="#2C2C2C"/>
<path d="M14.8109 21.936C14.7984 21.936 14.786 21.9329 14.7749 21.9271C14.7638 21.9213 14.7542 21.9129 14.747 21.9026C14.593 21.6799 14.4566 21.4456 14.3388 21.2018C14.3343 21.1926 14.3318 21.1826 14.3312 21.1725C14.3306 21.1623 14.332 21.1521 14.3354 21.1425C14.3388 21.1329 14.344 21.124 14.3508 21.1165C14.3576 21.1089 14.3658 21.1027 14.375 21.0983L18.9616 18.8895C18.9792 18.8804 18.9997 18.8784 19.0188 18.8839C19.0379 18.8895 19.0541 18.9022 19.0641 18.9193C19.0741 18.9365 19.0771 18.9569 19.0725 18.9762C19.0679 18.9955 19.0561 19.0124 19.0394 19.0232L14.8551 21.9223C14.8422 21.9314 14.8267 21.9362 14.8109 21.936ZM14.5128 21.204C14.6074 21.3925 14.7136 21.5749 14.831 21.7502L18.1415 19.4567L14.5128 21.204Z" fill="#2C2C2C"/>
<path d="M18.998 25.3998C18.5142 25.3998 18.0295 25.346 17.5617 25.2391C17.5417 25.2345 17.5243 25.2221 17.5134 25.2046C17.5024 25.1872 17.4988 25.1662 17.5034 25.1461L18.9194 18.9421C18.9276 18.9061 18.9612 18.8757 18.9972 18.8819C19.0152 18.8823 19.0324 18.8889 19.046 18.9007C19.0596 18.9125 19.0686 18.9287 19.0715 18.9464L20.1374 25.2202C20.1408 25.2404 20.136 25.2613 20.1241 25.278C20.1122 25.2948 20.0941 25.3062 20.0738 25.3096C19.7184 25.37 19.3585 25.4002 18.998 25.3998ZM17.672 25.1047C18.422 25.2659 19.2132 25.2884 19.9715 25.1692L18.9839 19.3568L17.672 25.1047Z" fill="#2C2C2C"/>
<path d="M25.3437 26.9973C25.332 26.9974 25.3205 26.9948 25.3099 26.9897C25.2994 26.9847 25.2902 26.9773 25.2829 26.9681L18.9348 19.0078C18.9228 18.993 18.9166 18.9743 18.9176 18.9552C18.9185 18.9362 18.9264 18.9182 18.9398 18.9046C18.9532 18.891 18.9712 18.8829 18.9902 18.8817C19.0092 18.8806 19.028 18.8865 19.0429 18.8983L27.0741 25.1568C27.0904 25.1695 27.1009 25.1881 27.1034 25.2085C27.106 25.2289 27.1003 25.2495 27.0876 25.2658C26.5917 25.9021 26.0225 26.4777 25.3917 26.9807C25.3781 26.9916 25.3611 26.9975 25.3437 26.9973ZM19.4646 19.4235L25.3559 26.8108C25.9328 26.3432 26.4565 25.8136 26.9176 25.2315L19.4646 19.4235Z" fill="#2C2C2C"/>
</g>
<defs>
<clipPath id="clip0_9_20">
<rect width="24" height="24" fill="white" transform="translate(7 7)"/>
</clipPath>
</defs>
</svg>
