<svg width="38" height="38" viewBox="0 0 38 38" fill="none" xmlns="http://www.w3.org/2000/svg">
<rect width="38" height="38" fill="#080715"/>
<g clip-path="url(#clip0_9_20)">
<path d="M11.2501 7.30005H26.7499C29.1001 7.30005 31 9.19999 31 11.5501V26.45C31 28.8001 29.1001 30.7001 26.7499 30.7001H11.2501C8.89994 30.7001 7 28.8001 7 26.45V11.5501C7 9.19999 8.89994 7.30005 11.2501 7.30005Z" fill="#001E36"/>
<path d="M15.6 13.25C15.3 13.25 15 13.25 14.69 13.2601C14.3799 13.2701 14.0898 13.2701 13.8198 13.2802C13.5498 13.2901 13.2999 13.2901 13.0599 13.3001C12.8298 13.31 12.6699 13.31 12.4998 13.31C12.4299 13.31 12.3999 13.3499 12.3999 13.4201V23.7101C12.3999 23.8001 12.4398 23.8402 12.5199 23.8402H14.46C14.5299 23.8301 14.58 23.7701 14.5698 23.7001V20.4901C14.7598 20.4901 14.8998 20.4901 15 20.5001C15.0999 20.51 15.2598 20.51 15.4998 20.51C16.32 20.51 17.07 20.42 17.7498 20.1701C18.3999 19.9301 18.96 19.5101 19.3599 18.95C19.7599 18.39 19.9599 17.68 19.9599 16.82C19.9599 16.37 19.88 15.9401 19.73 15.5201C19.5711 15.0922 19.3221 14.7034 18.9999 14.3801C18.6196 14.0106 18.1619 13.7305 17.6598 13.5599C17.0998 13.3499 16.4199 13.25 15.6 13.25ZM15.8231 15.2197C16.1793 15.2264 16.5262 15.2887 16.8498 15.4199C17.1399 15.53 17.3799 15.7301 17.55 15.9899C17.7095 16.2589 17.7892 16.5676 17.78 16.8802C17.78 17.3201 17.6799 17.6602 17.4699 17.9101C17.2498 18.1601 16.9698 18.3502 16.65 18.4402C16.2798 18.5602 15.8898 18.62 15.4998 18.62H14.9698C14.8498 18.62 14.72 18.6101 14.58 18.6001V15.2401C14.6499 15.23 14.79 15.2201 14.99 15.2302C15.18 15.2201 15.4098 15.2201 15.6699 15.2201C15.7212 15.2188 15.7722 15.2187 15.8231 15.2197ZM24.21 15.7302C23.4999 15.7302 22.9098 15.8401 22.44 16.0801C22.01 16.2802 21.6399 16.6001 21.39 17C21.17 17.3701 21.0498 17.78 21.0498 18.2101C21.0413 18.5639 21.1203 18.9143 21.2799 19.2301C21.4669 19.5664 21.7266 19.8568 22.04 20.0801C22.4799 20.3809 22.9573 20.623 23.46 20.8001C23.9499 20.99 24.2799 21.14 24.44 21.2699C24.6 21.4001 24.68 21.53 24.68 21.6701C24.68 21.8501 24.57 22.0201 24.41 22.0901C24.23 22.1801 23.96 22.2301 23.58 22.2301C23.18 22.2301 22.7799 22.1801 22.3998 22.0801C21.9634 21.9827 21.545 21.8173 21.1599 21.5902C21.1299 21.5701 21.0999 21.5602 21.0699 21.5802C21.0399 21.6001 21.03 21.6401 21.03 21.6701V23.4101C21.02 23.4901 21.0699 23.5601 21.14 23.6C21.4643 23.7515 21.8073 23.8591 22.16 23.9201C22.61 24.0101 23.0598 24.05 23.5198 24.05C24.2398 24.05 24.84 23.9401 25.3299 23.7301C25.7799 23.5501 26.1699 23.2402 26.4498 22.8401C26.712 22.4467 26.8481 21.9828 26.8398 21.5101C26.8497 21.1531 26.7707 20.7992 26.61 20.4802C26.4198 20.1401 26.1498 19.8601 25.8198 19.6501C25.3371 19.347 24.8202 19.1019 24.2799 18.92C24.0386 18.8201 23.8017 18.71 23.5698 18.59C23.4399 18.5201 23.3199 18.4301 23.2299 18.32C23.1699 18.2399 23.13 18.1501 23.13 18.0601C23.13 17.9701 23.16 17.8702 23.2098 17.7901C23.28 17.6902 23.3898 17.6201 23.5198 17.5901C23.7099 17.5402 23.9199 17.51 24.1198 17.5199C24.4998 17.5199 24.8698 17.57 25.2399 17.6501C25.58 17.72 25.8999 17.8301 26.1999 17.9902C26.2398 18.0101 26.2899 18.0101 26.3799 17.9902C26.3955 17.9786 26.4082 17.9635 26.4169 17.9461C26.4256 17.9287 26.4301 17.9095 26.43 17.8901V16.2601C26.43 16.22 26.4198 16.1801 26.4099 16.1401C26.3898 16.1002 26.3499 16.0601 26.31 16.0501C26.0342 15.9374 25.7452 15.8601 25.4499 15.8201C25.0393 15.7603 24.6249 15.7304 24.21 15.7302Z" fill="#31A8FF"/>
</g>
<defs>
<clipPath id="clip0_9_20">
<rect width="24" height="24" fill="white" transform="translate(7 7)"/>
</clipPath>
</defs>
</svg>
