<svg width="38" height="38" viewBox="0 0 38 38" fill="none" xmlns="http://www.w3.org/2000/svg">
<rect width="38" height="38" fill="#080715"/>
<g clip-path="url(#clip0_9_20)">
<path d="M18.948 7.00684C12.8462 7.00684 13.2271 9.65295 13.2271 9.65295L13.2339 12.3944H19.0568V13.2175H10.9212C10.9212 13.2175 7.0166 12.7746 7.0166 18.9314C7.0166 25.0882 10.4246 24.8699 10.4246 24.8699H12.4585V22.0129C12.4585 22.0129 12.3488 18.6049 15.8121 18.6049H21.5873C21.5873 18.6049 24.832 18.6573 24.832 15.469V10.1972C24.832 10.1972 25.3248 7.00684 18.948 7.00684ZM15.7373 8.85041C15.8749 8.85029 16.0111 8.8773 16.1383 8.9299C16.2654 8.9825 16.381 9.05965 16.4783 9.15695C16.5755 9.25425 16.6527 9.36978 16.7053 9.49692C16.7579 9.62407 16.7849 9.76034 16.7848 9.89794C16.7849 10.0355 16.7579 10.1718 16.7053 10.299C16.6527 10.4261 16.5755 10.5416 16.4783 10.6389C16.381 10.7362 16.2654 10.8134 16.1383 10.866C16.0111 10.9186 15.8749 10.9456 15.7373 10.9455C15.5997 10.9456 15.4634 10.9186 15.3362 10.866C15.2091 10.8134 15.0936 10.7362 14.9963 10.6389C14.899 10.5416 14.8218 10.4261 14.7692 10.299C14.7166 10.1718 14.6896 10.0355 14.6897 9.89794C14.6896 9.76034 14.7166 9.62407 14.7692 9.49692C14.8218 9.36978 14.899 9.25425 14.9963 9.15695C15.0936 9.05965 15.2091 8.9825 15.3362 8.9299C15.4634 8.8773 15.5997 8.85029 15.7373 8.85041Z" fill="url(#paint0_linear_9_20)"/>
<path d="M19.1215 30.9177C25.2233 30.9177 24.8423 28.2716 24.8423 28.2716L24.8356 25.5302H19.0126V24.7072H27.1482C27.1482 24.7072 31.0528 25.15 31.0528 18.9931C31.0528 12.8363 27.6448 13.0547 27.6448 13.0547H25.6109V15.9116C25.6109 15.9116 25.7205 19.3196 22.2573 19.3196H16.482C16.482 19.3196 13.2373 19.2672 13.2373 22.4556V27.7274C13.2373 27.7274 12.7446 30.9177 19.1214 30.9177M22.3321 29.0743C22.1945 29.0745 22.0582 29.0475 21.9311 28.9949C21.804 28.9423 21.6884 28.8651 21.5911 28.7678C21.4938 28.6705 21.4167 28.555 21.3641 28.4278C21.3115 28.3007 21.2845 28.1644 21.2846 28.0268C21.2845 27.8892 21.3115 27.7529 21.364 27.6258C21.4166 27.4986 21.4938 27.3831 21.5911 27.2858C21.6884 27.1885 21.8039 27.1113 21.9311 27.0587C22.0582 27.0061 22.1945 26.9791 22.3321 26.9792C22.4697 26.9791 22.606 27.0061 22.7331 27.0587C22.8603 27.1113 22.9758 27.1884 23.0731 27.2857C23.1704 27.383 23.2476 27.4985 23.3002 27.6257C23.3528 27.7528 23.3798 27.8891 23.3796 28.0267C23.3798 28.1643 23.3528 28.3006 23.3002 28.4277C23.2476 28.5549 23.1704 28.6704 23.0731 28.7677C22.9758 28.865 22.8603 28.9422 22.7331 28.9948C22.606 29.0474 22.4697 29.0745 22.3321 29.0743Z" fill="url(#paint1_linear_9_20)"/>
</g>
<defs>
<linearGradient id="paint0_linear_9_20" x1="238.001" y1="222.072" x2="1429.15" y2="1401.34" gradientUnits="userSpaceOnUse">
<stop stop-color="#387EB8"/>
<stop offset="1" stop-color="#366994"/>
</linearGradient>
<linearGradient id="paint1_linear_9_20" x1="354.171" y1="380.677" x2="1633.33" y2="1589.91" gradientUnits="userSpaceOnUse">
<stop stop-color="#FFE052"/>
<stop offset="1" stop-color="#FFC331"/>
</linearGradient>
<clipPath id="clip0_9_20">
<rect width="24.1" height="24" fill="white" transform="translate(7 7)"/>
</clipPath>
</defs>
</svg>
